<mxfile host="app.diagrams.net" agent="Mozilla/5.0 (Windows NT 10.0; Win64; x64) AppleWebKit/537.36 (KHTML, like Gecko) Chrome/130.0.0.0 Safari/537.36" version="24.8.3">
  <diagram id="R2lEEEUBdFMjLlhIrx00" name="Page-1">
    <mxGraphModel grid="1" page="1" gridSize="10" guides="1" tooltips="1" connect="1" arrows="1" fold="1" pageScale="1" pageWidth="850" pageHeight="1100" math="0" shadow="0" extFonts="Permanent Marker^https://fonts.googleapis.com/css?family=Permanent+Marker">
      <root>
        <mxCell id="0" />
        <mxCell id="1" parent="0" />
        <mxCell id="C-vyLk0tnHw3VtMMgP7b-23" value="User" style="shape=table;startSize=30;container=1;collapsible=1;childLayout=tableLayout;fixedRows=1;rowLines=0;fontStyle=1;align=center;resizeLast=1;" vertex="1" parent="1">
          <mxGeometry x="680" y="150" width="350" height="270" as="geometry" />
        </mxCell>
        <mxCell id="C-vyLk0tnHw3VtMMgP7b-24" value="" style="shape=partialRectangle;collapsible=0;dropTarget=0;pointerEvents=0;fillColor=none;points=[[0,0.5],[1,0.5]];portConstraint=eastwest;top=0;left=0;right=0;bottom=1;" vertex="1" parent="C-vyLk0tnHw3VtMMgP7b-23">
          <mxGeometry y="30" width="350" height="30" as="geometry" />
        </mxCell>
        <mxCell id="C-vyLk0tnHw3VtMMgP7b-25" value="PK" style="shape=partialRectangle;overflow=hidden;connectable=0;fillColor=none;top=0;left=0;bottom=0;right=0;fontStyle=1;" vertex="1" parent="C-vyLk0tnHw3VtMMgP7b-24">
          <mxGeometry width="30" height="30" as="geometry">
            <mxRectangle width="30" height="30" as="alternateBounds" />
          </mxGeometry>
        </mxCell>
        <mxCell id="C-vyLk0tnHw3VtMMgP7b-26" value="userID int NOT NULL " style="shape=partialRectangle;overflow=hidden;connectable=0;fillColor=none;top=0;left=0;bottom=0;right=0;align=left;spacingLeft=6;fontStyle=5;" vertex="1" parent="C-vyLk0tnHw3VtMMgP7b-24">
          <mxGeometry x="30" width="320" height="30" as="geometry">
            <mxRectangle width="320" height="30" as="alternateBounds" />
          </mxGeometry>
        </mxCell>
        <mxCell id="MybgIfUeeAKkbdjTPDTp-15" value="" style="shape=partialRectangle;collapsible=0;dropTarget=0;pointerEvents=0;fillColor=none;points=[[0,0.5],[1,0.5]];portConstraint=eastwest;top=0;left=0;right=0;bottom=0;" vertex="1" parent="C-vyLk0tnHw3VtMMgP7b-23">
          <mxGeometry y="60" width="350" height="210" as="geometry" />
        </mxCell>
        <mxCell id="MybgIfUeeAKkbdjTPDTp-16" value="" style="shape=partialRectangle;overflow=hidden;connectable=0;fillColor=none;top=0;left=0;bottom=0;right=0;" vertex="1" parent="MybgIfUeeAKkbdjTPDTp-15">
          <mxGeometry width="30" height="210" as="geometry">
            <mxRectangle width="30" height="210" as="alternateBounds" />
          </mxGeometry>
        </mxCell>
        <mxCell id="MybgIfUeeAKkbdjTPDTp-17" value="firstName varchar(50) NOT NULL&#xa;&#xa;lastName varchar(50) NOT NULL&#xa;&#xa;email varchar(255) NOT NULL&#xa;&#xa;userModified datetime NOT NULL&#xa;&#xa;username varchar(25) NOT NULL&#xa;&#xa;password varchar(128) NOT NULL&#xa;&#xa;userType enum(&#39;customer&#39;, &#39;admin&#39;) NOT NULL" style="shape=partialRectangle;overflow=hidden;connectable=0;fillColor=none;top=0;left=0;bottom=0;right=0;align=left;spacingLeft=6;" vertex="1" parent="MybgIfUeeAKkbdjTPDTp-15">
          <mxGeometry x="30" width="320" height="210" as="geometry">
            <mxRectangle width="320" height="210" as="alternateBounds" />
          </mxGeometry>
        </mxCell>
        <mxCell id="MybgIfUeeAKkbdjTPDTp-18" value="Address" style="shape=table;startSize=30;container=1;collapsible=1;childLayout=tableLayout;fixedRows=1;rowLines=0;fontStyle=1;align=center;resizeLast=1;" vertex="1" parent="1">
          <mxGeometry x="1130" y="150" width="250" height="290" as="geometry" />
        </mxCell>
        <mxCell id="MybgIfUeeAKkbdjTPDTp-19" value="" style="shape=partialRectangle;collapsible=0;dropTarget=0;pointerEvents=0;fillColor=none;points=[[0,0.5],[1,0.5]];portConstraint=eastwest;top=0;left=0;right=0;bottom=1;" vertex="1" parent="MybgIfUeeAKkbdjTPDTp-18">
          <mxGeometry y="30" width="250" height="30" as="geometry" />
        </mxCell>
        <mxCell id="MybgIfUeeAKkbdjTPDTp-20" value="PK" style="shape=partialRectangle;overflow=hidden;connectable=0;fillColor=none;top=0;left=0;bottom=0;right=0;fontStyle=1;" vertex="1" parent="MybgIfUeeAKkbdjTPDTp-19">
          <mxGeometry width="30" height="30" as="geometry">
            <mxRectangle width="30" height="30" as="alternateBounds" />
          </mxGeometry>
        </mxCell>
        <mxCell id="MybgIfUeeAKkbdjTPDTp-21" value="addressID int NOT NULL " style="shape=partialRectangle;overflow=hidden;connectable=0;fillColor=none;top=0;left=0;bottom=0;right=0;align=left;spacingLeft=6;fontStyle=5;" vertex="1" parent="MybgIfUeeAKkbdjTPDTp-19">
          <mxGeometry x="30" width="220" height="30" as="geometry">
            <mxRectangle width="220" height="30" as="alternateBounds" />
          </mxGeometry>
        </mxCell>
        <mxCell id="MybgIfUeeAKkbdjTPDTp-25" value="" style="shape=partialRectangle;collapsible=0;dropTarget=0;pointerEvents=0;fillColor=none;points=[[0,0.5],[1,0.5]];portConstraint=eastwest;top=0;left=0;right=0;bottom=0;" vertex="1" parent="MybgIfUeeAKkbdjTPDTp-18">
          <mxGeometry y="60" width="250" height="230" as="geometry" />
        </mxCell>
        <mxCell id="MybgIfUeeAKkbdjTPDTp-26" value="FK&#xa;&#xa;&#xa;&#xa;&#xa;&#xa;&#xa;&#xa;&#xa;&#xa;&#xa;&#xa;&#xa;&#xa;" style="shape=partialRectangle;overflow=hidden;connectable=0;fillColor=none;top=0;left=0;bottom=0;right=0;" vertex="1" parent="MybgIfUeeAKkbdjTPDTp-25">
          <mxGeometry width="30" height="230" as="geometry">
            <mxRectangle width="30" height="230" as="alternateBounds" />
          </mxGeometry>
        </mxCell>
        <mxCell id="MybgIfUeeAKkbdjTPDTp-27" value="userID int NOT NULL&#xa;&#xa;name varchar(20)&#xa;&#xa;streetNumber varchar(10)&#xa;&#xa;street varchar(20)&#xa;&#xa;city varchar(20) NOT NULL&#xa;&#xa;state varchar(20)&#xa;&#xa;country varchar(20) NOT NULL&#xa;&#xa;additionalDetails(255)" style="shape=partialRectangle;overflow=hidden;connectable=0;fillColor=none;top=0;left=0;bottom=0;right=0;align=left;spacingLeft=6;" vertex="1" parent="MybgIfUeeAKkbdjTPDTp-25">
          <mxGeometry x="30" width="220" height="230" as="geometry">
            <mxRectangle width="220" height="230" as="alternateBounds" />
          </mxGeometry>
        </mxCell>
        <mxCell id="MybgIfUeeAKkbdjTPDTp-41" value="Product" style="shape=table;startSize=30;container=1;collapsible=1;childLayout=tableLayout;fixedRows=1;rowLines=0;fontStyle=1;align=center;resizeLast=1;" vertex="1" parent="1">
          <mxGeometry x="155" y="510" width="400" height="300" as="geometry" />
        </mxCell>
        <mxCell id="MybgIfUeeAKkbdjTPDTp-42" value="" style="shape=partialRectangle;collapsible=0;dropTarget=0;pointerEvents=0;fillColor=none;points=[[0,0.5],[1,0.5]];portConstraint=eastwest;top=0;left=0;right=0;bottom=1;" vertex="1" parent="MybgIfUeeAKkbdjTPDTp-41">
          <mxGeometry y="30" width="400" height="30" as="geometry" />
        </mxCell>
        <mxCell id="MybgIfUeeAKkbdjTPDTp-43" value="PK" style="shape=partialRectangle;overflow=hidden;connectable=0;fillColor=none;top=0;left=0;bottom=0;right=0;fontStyle=1;" vertex="1" parent="MybgIfUeeAKkbdjTPDTp-42">
          <mxGeometry width="30" height="30" as="geometry">
            <mxRectangle width="30" height="30" as="alternateBounds" />
          </mxGeometry>
        </mxCell>
        <mxCell id="MybgIfUeeAKkbdjTPDTp-44" value="productID int NOT NULL " style="shape=partialRectangle;overflow=hidden;connectable=0;fillColor=none;top=0;left=0;bottom=0;right=0;align=left;spacingLeft=6;fontStyle=5;" vertex="1" parent="MybgIfUeeAKkbdjTPDTp-42">
          <mxGeometry x="30" width="370" height="30" as="geometry">
            <mxRectangle width="370" height="30" as="alternateBounds" />
          </mxGeometry>
        </mxCell>
        <mxCell id="MybgIfUeeAKkbdjTPDTp-45" value="" style="shape=partialRectangle;collapsible=0;dropTarget=0;pointerEvents=0;fillColor=none;points=[[0,0.5],[1,0.5]];portConstraint=eastwest;top=0;left=0;right=0;bottom=0;" vertex="1" parent="MybgIfUeeAKkbdjTPDTp-41">
          <mxGeometry y="60" width="400" height="240" as="geometry" />
        </mxCell>
        <mxCell id="MybgIfUeeAKkbdjTPDTp-46" value="" style="shape=partialRectangle;overflow=hidden;connectable=0;fillColor=none;top=0;left=0;bottom=0;right=0;" vertex="1" parent="MybgIfUeeAKkbdjTPDTp-45">
          <mxGeometry width="30" height="240" as="geometry">
            <mxRectangle width="30" height="240" as="alternateBounds" />
          </mxGeometry>
        </mxCell>
        <mxCell id="MybgIfUeeAKkbdjTPDTp-47" value="productName varchar(255) NOT NULL&#xa;&#xa;productDescription varchar(255) NOT NULL&#xa;&#xa;productIngredients varchar(255) NOT NULL&#xa;&#xa;productShelflife varchar(255) NOT NULL&#xa;&#xa;productImage varchar(255) NOT NULL&#xa;&#xa;stock int(10) NOT NULL&#xa;&#xa;isAvailable boolean NOT NULL &#xa;&#xa;price float(5, 2) NOT NULL" style="shape=partialRectangle;overflow=hidden;connectable=0;fillColor=none;top=0;left=0;bottom=0;right=0;align=left;spacingLeft=6;" vertex="1" parent="MybgIfUeeAKkbdjTPDTp-45">
          <mxGeometry x="30" width="370" height="240" as="geometry">
            <mxRectangle width="370" height="240" as="alternateBounds" />
          </mxGeometry>
        </mxCell>
        <mxCell id="MybgIfUeeAKkbdjTPDTp-79" value="Order" style="shape=table;startSize=30;container=1;collapsible=1;childLayout=tableLayout;fixedRows=1;rowLines=0;fontStyle=1;align=center;resizeLast=1;" vertex="1" parent="1">
          <mxGeometry x="200" y="230" width="310" height="200" as="geometry" />
        </mxCell>
        <mxCell id="MybgIfUeeAKkbdjTPDTp-80" value="" style="shape=partialRectangle;collapsible=0;dropTarget=0;pointerEvents=0;fillColor=none;points=[[0,0.5],[1,0.5]];portConstraint=eastwest;top=0;left=0;right=0;bottom=1;" vertex="1" parent="MybgIfUeeAKkbdjTPDTp-79">
          <mxGeometry y="30" width="310" height="30" as="geometry" />
        </mxCell>
        <mxCell id="MybgIfUeeAKkbdjTPDTp-81" value="PK" style="shape=partialRectangle;overflow=hidden;connectable=0;fillColor=none;top=0;left=0;bottom=0;right=0;fontStyle=1;" vertex="1" parent="MybgIfUeeAKkbdjTPDTp-80">
          <mxGeometry width="30" height="30" as="geometry">
            <mxRectangle width="30" height="30" as="alternateBounds" />
          </mxGeometry>
        </mxCell>
        <mxCell id="MybgIfUeeAKkbdjTPDTp-82" value="orderID int NOT NULL " style="shape=partialRectangle;overflow=hidden;connectable=0;fillColor=none;top=0;left=0;bottom=0;right=0;align=left;spacingLeft=6;fontStyle=5;" vertex="1" parent="MybgIfUeeAKkbdjTPDTp-80">
          <mxGeometry x="30" width="280" height="30" as="geometry">
            <mxRectangle width="280" height="30" as="alternateBounds" />
          </mxGeometry>
        </mxCell>
        <mxCell id="MybgIfUeeAKkbdjTPDTp-83" value="" style="shape=partialRectangle;collapsible=0;dropTarget=0;pointerEvents=0;fillColor=none;points=[[0,0.5],[1,0.5]];portConstraint=eastwest;top=0;left=0;right=0;bottom=0;" vertex="1" parent="MybgIfUeeAKkbdjTPDTp-79">
          <mxGeometry y="60" width="310" height="140" as="geometry" />
        </mxCell>
        <mxCell id="MybgIfUeeAKkbdjTPDTp-84" value="FK&#xa;&#xa;FK&#xa;&#xa;&#xa;&#xa;" style="shape=partialRectangle;overflow=hidden;connectable=0;fillColor=none;top=0;left=0;bottom=0;right=0;spacing=1;spacingTop=-24;" vertex="1" parent="MybgIfUeeAKkbdjTPDTp-83">
          <mxGeometry width="30" height="140" as="geometry">
            <mxRectangle width="30" height="140" as="alternateBounds" />
          </mxGeometry>
        </mxCell>
        <mxCell id="MybgIfUeeAKkbdjTPDTp-85" value="productID int NOT NULL&#xa;&#xa;userID int NOT NULL&#xa;&#xa;total float(5, 2) NOT NULL&#xa;&#xa;productAmount int(3) NOT NULL&#xa;&#xa;datePaid datetime" style="shape=partialRectangle;overflow=hidden;connectable=0;fillColor=none;top=0;left=0;bottom=0;right=0;align=left;spacingLeft=6;" vertex="1" parent="MybgIfUeeAKkbdjTPDTp-83">
          <mxGeometry x="30" width="280" height="140" as="geometry">
            <mxRectangle width="280" height="140" as="alternateBounds" />
          </mxGeometry>
        </mxCell>
        <mxCell id="MybgIfUeeAKkbdjTPDTp-108" value="Comment" style="shape=table;startSize=30;container=1;collapsible=1;childLayout=tableLayout;fixedRows=1;rowLines=0;fontStyle=0;align=center;resizeLast=1;" vertex="1" parent="1">
          <mxGeometry x="370" y="880" width="240" height="190" as="geometry" />
        </mxCell>
        <mxCell id="MybgIfUeeAKkbdjTPDTp-109" value="" style="shape=partialRectangle;collapsible=0;dropTarget=0;pointerEvents=0;fillColor=none;points=[[0,0.5],[1,0.5]];portConstraint=eastwest;top=0;left=0;right=0;bottom=1;" vertex="1" parent="MybgIfUeeAKkbdjTPDTp-108">
          <mxGeometry y="30" width="240" height="30" as="geometry" />
        </mxCell>
        <mxCell id="MybgIfUeeAKkbdjTPDTp-110" value="PK" style="shape=partialRectangle;overflow=hidden;connectable=0;fillColor=none;top=0;left=0;bottom=0;right=0;fontStyle=1;" vertex="1" parent="MybgIfUeeAKkbdjTPDTp-109">
          <mxGeometry width="30" height="30" as="geometry">
            <mxRectangle width="30" height="30" as="alternateBounds" />
          </mxGeometry>
        </mxCell>
        <mxCell id="MybgIfUeeAKkbdjTPDTp-111" value="commentID int NOT NULL " style="shape=partialRectangle;overflow=hidden;connectable=0;fillColor=none;top=0;left=0;bottom=0;right=0;align=left;spacingLeft=6;fontStyle=5;" vertex="1" parent="MybgIfUeeAKkbdjTPDTp-109">
          <mxGeometry x="30" width="210" height="30" as="geometry">
            <mxRectangle width="210" height="30" as="alternateBounds" />
          </mxGeometry>
        </mxCell>
        <mxCell id="MybgIfUeeAKkbdjTPDTp-112" value="" style="shape=partialRectangle;collapsible=0;dropTarget=0;pointerEvents=0;fillColor=none;points=[[0,0.5],[1,0.5]];portConstraint=eastwest;top=0;left=0;right=0;bottom=0;" vertex="1" parent="MybgIfUeeAKkbdjTPDTp-108">
          <mxGeometry y="60" width="240" height="130" as="geometry" />
        </mxCell>
        <mxCell id="MybgIfUeeAKkbdjTPDTp-113" value="FK&#xa;&#xa;FK&#xa;&#xa;&#xa;&#xa;" style="shape=partialRectangle;overflow=hidden;connectable=0;fillColor=none;top=0;left=0;bottom=0;right=0;" vertex="1" parent="MybgIfUeeAKkbdjTPDTp-112">
          <mxGeometry width="30" height="130" as="geometry">
            <mxRectangle width="30" height="130" as="alternateBounds" />
          </mxGeometry>
        </mxCell>
        <mxCell id="MybgIfUeeAKkbdjTPDTp-114" value="userID int NOT NULL&#xa;&#xa;productID int NOT NULL&#xa;&#xa;rating int(1)&#xa;&#xa;content varchar(255) NOT NULL" style="shape=partialRectangle;overflow=hidden;connectable=0;fillColor=none;top=0;left=0;bottom=0;right=0;align=left;spacingLeft=6;fontStyle=0" vertex="1" parent="MybgIfUeeAKkbdjTPDTp-112">
          <mxGeometry x="30" width="210" height="130" as="geometry">
            <mxRectangle width="210" height="130" as="alternateBounds" />
          </mxGeometry>
        </mxCell>
        <mxCell id="MybgIfUeeAKkbdjTPDTp-137" value="" style="fontSize=12;html=1;endArrow=ERoneToMany;startArrow=ERmandOne;rounded=0;strokeColor=default;align=center;verticalAlign=middle;fontFamily=Helvetica;fontColor=default;labelBackgroundColor=default;edgeStyle=orthogonalEdgeStyle;" edge="1" parent="1" source="C-vyLk0tnHw3VtMMgP7b-23" target="MybgIfUeeAKkbdjTPDTp-25">
          <mxGeometry width="100" height="100" relative="1" as="geometry">
            <mxPoint x="900" y="350" as="sourcePoint" />
            <mxPoint x="1000" y="250" as="targetPoint" />
          </mxGeometry>
        </mxCell>
        <mxCell id="MybgIfUeeAKkbdjTPDTp-143" value="" style="fontSize=12;html=1;endArrow=ERoneToMany;startArrow=ERmandOne;rounded=0;strokeColor=default;align=center;verticalAlign=middle;fontFamily=Helvetica;fontColor=default;labelBackgroundColor=default;edgeStyle=orthogonalEdgeStyle;" edge="1" parent="1" source="MybgIfUeeAKkbdjTPDTp-41" target="MybgIfUeeAKkbdjTPDTp-79">
          <mxGeometry width="100" height="100" relative="1" as="geometry">
            <mxPoint x="320" y="480" as="sourcePoint" />
            <mxPoint x="100" y="510" as="targetPoint" />
          </mxGeometry>
        </mxCell>
        <mxCell id="MybgIfUeeAKkbdjTPDTp-164" value="" style="edgeStyle=orthogonalEdgeStyle;fontSize=12;html=1;endArrow=ERzeroToMany;startArrow=ERmandOne;rounded=0;strokeColor=default;align=center;verticalAlign=middle;fontFamily=Helvetica;fontColor=default;labelBackgroundColor=default;" edge="1" parent="1" source="C-vyLk0tnHw3VtMMgP7b-23" target="MybgIfUeeAKkbdjTPDTp-83">
          <mxGeometry width="100" height="100" relative="1" as="geometry">
            <mxPoint x="680" y="365" as="sourcePoint" />
            <mxPoint x="440" y="400" as="targetPoint" />
          </mxGeometry>
        </mxCell>
        <mxCell id="MybgIfUeeAKkbdjTPDTp-165" value="" style="fontSize=12;html=1;endArrow=ERzeroToMany;startArrow=ERmandOne;rounded=0;strokeColor=default;align=center;verticalAlign=middle;fontFamily=Helvetica;fontColor=default;labelBackgroundColor=default;edgeStyle=orthogonalEdgeStyle;" edge="1" parent="1" source="MybgIfUeeAKkbdjTPDTp-41" target="MybgIfUeeAKkbdjTPDTp-108">
          <mxGeometry width="100" height="100" relative="1" as="geometry">
            <mxPoint x="385" y="730" as="sourcePoint" />
            <mxPoint x="770" y="1190" as="targetPoint" />
            <Array as="points">
              <mxPoint x="490" y="770" />
              <mxPoint x="490" y="770" />
            </Array>
          </mxGeometry>
        </mxCell>
        <mxCell id="ruNBr0l7XodyrTnlzRL7-1" value="&lt;b&gt;&lt;font style=&quot;font-size: 36px;&quot;&gt;The Daily Bean Entity Relationship Diagram&lt;/font&gt;&lt;/b&gt;" style="text;html=1;align=center;verticalAlign=middle;whiteSpace=wrap;rounded=0;" vertex="1" parent="1">
          <mxGeometry x="200" y="80" width="410" height="30" as="geometry" />
        </mxCell>
        <mxCell id="ZAz_9o4dnybEI1jvW3qS-1" value="" style="fontSize=12;html=1;endArrow=ERoneToMany;startArrow=ERmandOne;rounded=0;strokeColor=default;align=center;verticalAlign=middle;fontFamily=Helvetica;fontColor=default;labelBackgroundColor=default;entryX=0.5;entryY=0;entryDx=0;entryDy=0;" edge="1" parent="1" source="C-vyLk0tnHw3VtMMgP7b-23" target="N-uWCmcDv81g9BwRvNYO-1">
          <mxGeometry width="100" height="100" relative="1" as="geometry">
            <mxPoint x="890" y="420" as="sourcePoint" />
            <mxPoint x="810" y="480" as="targetPoint" />
          </mxGeometry>
        </mxCell>
        <mxCell id="ObnT-clof4X4Wq1p2-rV-1" value="Favorite" style="shape=table;startSize=30;container=1;collapsible=1;childLayout=tableLayout;fixedRows=1;rowLines=0;fontStyle=0;align=center;resizeLast=1;" vertex="1" parent="1">
          <mxGeometry x="90" y="880" width="240" height="140" as="geometry" />
        </mxCell>
        <mxCell id="ObnT-clof4X4Wq1p2-rV-2" value="" style="shape=partialRectangle;collapsible=0;dropTarget=0;pointerEvents=0;fillColor=none;points=[[0,0.5],[1,0.5]];portConstraint=eastwest;top=0;left=0;right=0;bottom=1;" vertex="1" parent="ObnT-clof4X4Wq1p2-rV-1">
          <mxGeometry y="30" width="240" height="30" as="geometry" />
        </mxCell>
        <mxCell id="ObnT-clof4X4Wq1p2-rV-3" value="PK" style="shape=partialRectangle;overflow=hidden;connectable=0;fillColor=none;top=0;left=0;bottom=0;right=0;fontStyle=1;" vertex="1" parent="ObnT-clof4X4Wq1p2-rV-2">
          <mxGeometry width="30" height="30" as="geometry">
            <mxRectangle width="30" height="30" as="alternateBounds" />
          </mxGeometry>
        </mxCell>
        <mxCell id="ObnT-clof4X4Wq1p2-rV-4" value="favoriteID int NOT NULL " style="shape=partialRectangle;overflow=hidden;connectable=0;fillColor=none;top=0;left=0;bottom=0;right=0;align=left;spacingLeft=6;fontStyle=5;" vertex="1" parent="ObnT-clof4X4Wq1p2-rV-2">
          <mxGeometry x="30" width="210" height="30" as="geometry">
            <mxRectangle width="210" height="30" as="alternateBounds" />
          </mxGeometry>
        </mxCell>
        <mxCell id="ObnT-clof4X4Wq1p2-rV-5" value="" style="shape=partialRectangle;collapsible=0;dropTarget=0;pointerEvents=0;fillColor=none;points=[[0,0.5],[1,0.5]];portConstraint=eastwest;top=0;left=0;right=0;bottom=0;" vertex="1" parent="ObnT-clof4X4Wq1p2-rV-1">
          <mxGeometry y="60" width="240" height="80" as="geometry" />
        </mxCell>
        <mxCell id="ObnT-clof4X4Wq1p2-rV-6" value="FK&#xa;&#xa;FK" style="shape=partialRectangle;overflow=hidden;connectable=0;fillColor=none;top=0;left=0;bottom=0;right=0;" vertex="1" parent="ObnT-clof4X4Wq1p2-rV-5">
          <mxGeometry width="30" height="80" as="geometry">
            <mxRectangle width="30" height="80" as="alternateBounds" />
          </mxGeometry>
        </mxCell>
        <mxCell id="ObnT-clof4X4Wq1p2-rV-7" value="userID int NOT NULL&#xa;&#xa;productID int NOT NULL" style="shape=partialRectangle;overflow=hidden;connectable=0;fillColor=none;top=0;left=0;bottom=0;right=0;align=left;spacingLeft=6;fontStyle=0" vertex="1" parent="ObnT-clof4X4Wq1p2-rV-5">
          <mxGeometry x="30" width="210" height="80" as="geometry">
            <mxRectangle width="210" height="80" as="alternateBounds" />
          </mxGeometry>
        </mxCell>
        <mxCell id="ObnT-clof4X4Wq1p2-rV-8" value="" style="fontSize=12;html=1;endArrow=ERzeroToMany;startArrow=ERmandOne;rounded=0;strokeColor=default;align=center;verticalAlign=middle;fontFamily=Helvetica;fontColor=default;labelBackgroundColor=default;edgeStyle=orthogonalEdgeStyle;" edge="1" parent="1" source="MybgIfUeeAKkbdjTPDTp-45" target="ObnT-clof4X4Wq1p2-rV-1">
          <mxGeometry width="100" height="100" relative="1" as="geometry">
            <mxPoint x="520" y="740" as="sourcePoint" />
            <mxPoint x="520" y="830" as="targetPoint" />
            <Array as="points">
              <mxPoint x="210" y="780" />
              <mxPoint x="210" y="780" />
            </Array>
          </mxGeometry>
        </mxCell>
        <mxCell id="N-uWCmcDv81g9BwRvNYO-1" value="ProductSubscription" style="shape=table;startSize=30;container=1;collapsible=1;childLayout=tableLayout;fixedRows=1;rowLines=0;fontStyle=1;align=center;resizeLast=1;" vertex="1" parent="1">
          <mxGeometry x="655" y="510" width="400" height="230.00000000000023" as="geometry" />
        </mxCell>
        <mxCell id="N-uWCmcDv81g9BwRvNYO-2" value="" style="shape=partialRectangle;collapsible=0;dropTarget=0;pointerEvents=0;fillColor=none;points=[[0,0.5],[1,0.5]];portConstraint=eastwest;top=0;left=0;right=0;bottom=1;" vertex="1" parent="N-uWCmcDv81g9BwRvNYO-1">
          <mxGeometry y="30" width="400" height="30" as="geometry" />
        </mxCell>
        <mxCell id="N-uWCmcDv81g9BwRvNYO-3" value="PK" style="shape=partialRectangle;overflow=hidden;connectable=0;fillColor=none;top=0;left=0;bottom=0;right=0;fontStyle=1;" vertex="1" parent="N-uWCmcDv81g9BwRvNYO-2">
          <mxGeometry width="30" height="30" as="geometry">
            <mxRectangle width="30" height="30" as="alternateBounds" />
          </mxGeometry>
        </mxCell>
        <mxCell id="N-uWCmcDv81g9BwRvNYO-4" value="subscriptionID int NOT NULL " style="shape=partialRectangle;overflow=hidden;connectable=0;fillColor=none;top=0;left=0;bottom=0;right=0;align=left;spacingLeft=6;fontStyle=5;" vertex="1" parent="N-uWCmcDv81g9BwRvNYO-2">
          <mxGeometry x="30" width="370" height="30" as="geometry">
            <mxRectangle width="370" height="30" as="alternateBounds" />
          </mxGeometry>
        </mxCell>
        <mxCell id="N-uWCmcDv81g9BwRvNYO-5" value="" style="shape=partialRectangle;collapsible=0;dropTarget=0;pointerEvents=0;fillColor=none;points=[[0,0.5],[1,0.5]];portConstraint=eastwest;top=0;left=0;right=0;bottom=0;" vertex="1" parent="N-uWCmcDv81g9BwRvNYO-1">
          <mxGeometry y="60" width="400" height="170" as="geometry" />
        </mxCell>
        <mxCell id="N-uWCmcDv81g9BwRvNYO-6" value="FK&#xa;&#xa;FK&#xa;&#xa;&#xa;&#xa;&#xa;&#xa;&#xa;&#xa;" style="shape=partialRectangle;overflow=hidden;connectable=0;fillColor=none;top=0;left=0;bottom=0;right=0;" vertex="1" parent="N-uWCmcDv81g9BwRvNYO-5">
          <mxGeometry width="30" height="170" as="geometry">
            <mxRectangle width="30" height="170" as="alternateBounds" />
          </mxGeometry>
        </mxCell>
        <mxCell id="N-uWCmcDv81g9BwRvNYO-7" value="userID int NOT NULL&#xa;&#xa;productID int NOT NULL&#xa;&#xa;subscriptionType enum(&#39;onebean&#39;, &#39;weeklybean&#39;, &#39;choicebean&#39;)&#xa;&#xa;nextMonthly datetime NOT NULL&#xa;&#xa;isActive boolean NOT NULL &#xa;&#xa;price float(5, 2) NOT NULL" style="shape=partialRectangle;overflow=hidden;connectable=0;fillColor=none;top=0;left=0;bottom=0;right=0;align=left;spacingLeft=6;" vertex="1" parent="N-uWCmcDv81g9BwRvNYO-5">
          <mxGeometry x="30" width="370" height="170" as="geometry">
            <mxRectangle width="370" height="170" as="alternateBounds" />
          </mxGeometry>
        </mxCell>
      </root>
    </mxGraphModel>
  </diagram>
</mxfile>
